<?xml version="1.0" encoding="UTF-8" standalone="no"?>
<!DOCTYPE svg PUBLIC "-//W3C//DTD SVG 1.1//EN"
 "http://www.w3.org/Graphics/SVG/1.1/DTD/svg11.dtd">
<!-- Generated by graphviz version 5.0.0 (20220707.1540)
 -->
<!-- Title: dependencies Pages: 1 -->
<svg width="502pt" height="174pt"
 viewBox="0.00 0.00 502.00 173.80" xmlns="http://www.w3.org/2000/svg" xmlns:xlink="http://www.w3.org/1999/xlink">
<g id="graph0" class="graph" transform="scale(1 1) rotate(0) translate(4 169.8)">
<title>dependencies</title>
<polygon fill="white" stroke="transparent" points="-4,4 -4,-169.8 498,-169.8 498,4 -4,4"/>
<text text-anchor="middle" x="247" y="-8.2" font-family="sans-serif" font-size="14.00">dependencies</text>
<g id="clust1" class="cluster">
<title>cluster_RechercheProfesseursPageModule</title>
<polygon fill="none" stroke="black" stroke-dasharray="1,5" points="8,-32.8 8,-157.8 486,-157.8 486,-32.8 8,-32.8"/>
</g>
<g id="clust2" class="cluster">
<title>cluster_RechercheProfesseursPageModule_declarations</title>
<polygon fill="none" stroke="black" points="296,-40.8 296,-92.8 478,-92.8 478,-40.8 296,-40.8"/>
</g>
<g id="clust4" class="cluster">
<title>cluster_RechercheProfesseursPageModule_imports</title>
<polygon fill="none" stroke="black" points="16,-40.8 16,-92.8 288,-92.8 288,-40.8 16,-40.8"/>
</g>
<!-- RechercheProfesseursPage -->
<g id="node1" class="node">
<title>RechercheProfesseursPage</title>
<polygon fill="#ffffb3" stroke="black" points="470.33,-84.8 303.67,-84.8 303.67,-48.8 470.33,-48.8 470.33,-84.8"/>
<text text-anchor="middle" x="387" y="-62.6" font-family="Times,serif" font-size="14.00">RechercheProfesseursPage</text>
</g>
<!-- RechercheProfesseursPageModule -->
<g id="node2" class="node">
<title>RechercheProfesseursPageModule</title>
<polygon fill="#8dd3c7" stroke="black" points="367.38,-149.8 364.38,-153.8 343.38,-153.8 340.38,-149.8 156.62,-149.8 156.62,-113.8 367.38,-113.8 367.38,-149.8"/>
<text text-anchor="middle" x="262" y="-127.6" font-family="Times,serif" font-size="14.00">RechercheProfesseursPageModule</text>
</g>
<!-- RechercheProfesseursPage&#45;&gt;RechercheProfesseursPageModule -->
<g id="edge1" class="edge">
<title>RechercheProfesseursPage&#45;&gt;RechercheProfesseursPageModule</title>
<path fill="none" stroke="black" d="M335.39,-84.91C335.39,-84.91 335.39,-103.79 335.39,-103.79"/>
<polygon fill="black" stroke="black" points="331.89,-103.79 335.39,-113.79 338.89,-103.79 331.89,-103.79"/>
</g>
<!-- RechercheProfesseursPageRoutingModule -->
<g id="node3" class="node">
<title>RechercheProfesseursPageRoutingModule</title>
<polygon fill="#8dd3c7" stroke="black" points="280,-84.8 277,-88.8 256,-88.8 253,-84.8 24,-84.8 24,-48.8 280,-48.8 280,-84.8"/>
<text text-anchor="middle" x="152" y="-62.6" font-family="Times,serif" font-size="14.00">RechercheProfesseursPageRoutingModule</text>
</g>
<!-- RechercheProfesseursPageRoutingModule&#45;&gt;RechercheProfesseursPageModule -->
<g id="edge2" class="edge">
<title>RechercheProfesseursPageRoutingModule&#45;&gt;RechercheProfesseursPageModule</title>
<path fill="none" stroke="black" d="M218.28,-84.91C218.28,-84.91 218.28,-103.79 218.28,-103.79"/>
<polygon fill="black" stroke="black" points="214.78,-103.79 218.28,-113.79 221.78,-103.79 214.78,-103.79"/>
</g>
</g>
</svg>
