<?xml version="1.0" encoding="UTF-8" standalone="no"?>
<!DOCTYPE svg PUBLIC "-//W3C//DTD SVG 1.1//EN"
 "http://www.w3.org/Graphics/SVG/1.1/DTD/svg11.dtd">
<!-- Generated by graphviz version 5.0.0 (20220707.1540)
 -->
<!-- Title: dependencies Pages: 1 -->
<svg width="452pt" height="174pt"
 viewBox="0.00 0.00 452.00 173.80" xmlns="http://www.w3.org/2000/svg" xmlns:xlink="http://www.w3.org/1999/xlink">
<g id="graph0" class="graph" transform="scale(1 1) rotate(0) translate(4 169.8)">
<title>dependencies</title>
<polygon fill="white" stroke="transparent" points="-4,4 -4,-169.8 448,-169.8 448,4 -4,4"/>
<text text-anchor="middle" x="222" y="-8.2" font-family="sans-serif" font-size="14.00">dependencies</text>
<g id="clust1" class="cluster">
<title>cluster_SaisieProfesseursPageModule</title>
<polygon fill="none" stroke="black" stroke-dasharray="1,5" points="8,-32.8 8,-157.8 436,-157.8 436,-32.8 8,-32.8"/>
</g>
<g id="clust4" class="cluster">
<title>cluster_SaisieProfesseursPageModule_imports</title>
<polygon fill="none" stroke="black" points="182,-40.8 182,-92.8 428,-92.8 428,-40.8 182,-40.8"/>
</g>
<g id="clust2" class="cluster">
<title>cluster_SaisieProfesseursPageModule_declarations</title>
<polygon fill="none" stroke="black" points="16,-40.8 16,-92.8 174,-92.8 174,-40.8 16,-40.8"/>
</g>
<!-- SaisieProfesseursPage -->
<g id="node1" class="node">
<title>SaisieProfesseursPage</title>
<polygon fill="#ffffb3" stroke="black" points="165.7,-84.8 24.3,-84.8 24.3,-48.8 165.7,-48.8 165.7,-84.8"/>
<text text-anchor="middle" x="95" y="-62.6" font-family="Times,serif" font-size="14.00">SaisieProfesseursPage</text>
</g>
<!-- SaisieProfesseursPageModule -->
<g id="node2" class="node">
<title>SaisieProfesseursPageModule</title>
<polygon fill="#8dd3c7" stroke="black" points="298.25,-149.8 295.25,-153.8 274.25,-153.8 271.25,-149.8 113.75,-149.8 113.75,-113.8 298.25,-113.8 298.25,-149.8"/>
<text text-anchor="middle" x="206" y="-127.6" font-family="Times,serif" font-size="14.00">SaisieProfesseursPageModule</text>
</g>
<!-- SaisieProfesseursPage&#45;&gt;SaisieProfesseursPageModule -->
<g id="edge1" class="edge">
<title>SaisieProfesseursPage&#45;&gt;SaisieProfesseursPageModule</title>
<path fill="none" stroke="black" d="M139.61,-84.91C139.61,-84.91 139.61,-103.79 139.61,-103.79"/>
<polygon fill="black" stroke="black" points="136.11,-103.79 139.61,-113.79 143.11,-103.79 136.11,-103.79"/>
</g>
<!-- SaisieProfesseursPageRoutingModule -->
<g id="node3" class="node">
<title>SaisieProfesseursPageRoutingModule</title>
<polygon fill="#8dd3c7" stroke="black" points="419.87,-84.8 416.87,-88.8 395.87,-88.8 392.87,-84.8 190.13,-84.8 190.13,-48.8 419.87,-48.8 419.87,-84.8"/>
<text text-anchor="middle" x="305" y="-62.6" font-family="Times,serif" font-size="14.00">SaisieProfesseursPageRoutingModule</text>
</g>
<!-- SaisieProfesseursPageRoutingModule&#45;&gt;SaisieProfesseursPageModule -->
<g id="edge2" class="edge">
<title>SaisieProfesseursPageRoutingModule&#45;&gt;SaisieProfesseursPageModule</title>
<path fill="none" stroke="black" d="M244.22,-84.91C244.22,-84.91 244.22,-103.79 244.22,-103.79"/>
<polygon fill="black" stroke="black" points="240.72,-103.79 244.22,-113.79 247.72,-103.79 240.72,-103.79"/>
</g>
</g>
</svg>
