<?xml version="1.0" encoding="UTF-8" standalone="no"?>
<!DOCTYPE svg PUBLIC "-//W3C//DTD SVG 1.1//EN"
 "http://www.w3.org/Graphics/SVG/1.1/DTD/svg11.dtd">
<!-- Generated by graphviz version 5.0.0 (20220707.1540)
 -->
<!-- Title: dependencies Pages: 1 -->
<svg width="322pt" height="174pt"
 viewBox="0.00 0.00 322.00 173.80" xmlns="http://www.w3.org/2000/svg" xmlns:xlink="http://www.w3.org/1999/xlink">
<g id="graph0" class="graph" transform="scale(1 1) rotate(0) translate(4 169.8)">
<title>dependencies</title>
<polygon fill="white" stroke="transparent" points="-4,4 -4,-169.8 318,-169.8 318,4 -4,4"/>
<text text-anchor="middle" x="157" y="-8.2" font-family="sans-serif" font-size="14.00">dependencies</text>
<g id="clust1" class="cluster">
<title>cluster_CoursPageModule</title>
<polygon fill="none" stroke="black" stroke-dasharray="1,5" points="8,-32.8 8,-157.8 306,-157.8 306,-32.8 8,-32.8"/>
</g>
<g id="clust2" class="cluster">
<title>cluster_CoursPageModule_declarations</title>
<polygon fill="none" stroke="black" points="206,-40.8 206,-92.8 298,-92.8 298,-40.8 206,-40.8"/>
</g>
<g id="clust4" class="cluster">
<title>cluster_CoursPageModule_imports</title>
<polygon fill="none" stroke="black" points="16,-40.8 16,-92.8 198,-92.8 198,-40.8 16,-40.8"/>
</g>
<!-- CoursPage -->
<g id="node1" class="node">
<title>CoursPage</title>
<polygon fill="#ffffb3" stroke="black" points="290.16,-84.8 213.84,-84.8 213.84,-48.8 290.16,-48.8 290.16,-84.8"/>
<text text-anchor="middle" x="252" y="-62.6" font-family="Times,serif" font-size="14.00">CoursPage</text>
</g>
<!-- CoursPageModule -->
<g id="node2" class="node">
<title>CoursPageModule</title>
<polygon fill="#8dd3c7" stroke="black" points="232.21,-149.8 229.21,-153.8 208.21,-153.8 205.21,-149.8 111.79,-149.8 111.79,-113.8 232.21,-113.8 232.21,-149.8"/>
<text text-anchor="middle" x="172" y="-127.6" font-family="Times,serif" font-size="14.00">CoursPageModule</text>
</g>
<!-- CoursPage&#45;&gt;CoursPageModule -->
<g id="edge1" class="edge">
<title>CoursPage&#45;&gt;CoursPageModule</title>
<path fill="none" stroke="black" d="M222.89,-84.91C222.89,-84.91 222.89,-103.79 222.89,-103.79"/>
<polygon fill="black" stroke="black" points="219.39,-103.79 222.89,-113.79 226.39,-103.79 219.39,-103.79"/>
</g>
<!-- CoursPageRoutingModule -->
<g id="node3" class="node">
<title>CoursPageRoutingModule</title>
<polygon fill="#8dd3c7" stroke="black" points="189.83,-84.8 186.83,-88.8 165.83,-88.8 162.83,-84.8 24.17,-84.8 24.17,-48.8 189.83,-48.8 189.83,-84.8"/>
<text text-anchor="middle" x="107" y="-62.6" font-family="Times,serif" font-size="14.00">CoursPageRoutingModule</text>
</g>
<!-- CoursPageRoutingModule&#45;&gt;CoursPageModule -->
<g id="edge2" class="edge">
<title>CoursPageRoutingModule&#45;&gt;CoursPageModule</title>
<path fill="none" stroke="black" d="M150.78,-84.91C150.78,-84.91 150.78,-103.79 150.78,-103.79"/>
<polygon fill="black" stroke="black" points="147.28,-103.79 150.78,-113.79 154.28,-103.79 147.28,-103.79"/>
</g>
</g>
</svg>
