<?xml version="1.0" encoding="UTF-8" standalone="no"?>
<!DOCTYPE svg PUBLIC "-//W3C//DTD SVG 1.1//EN"
 "http://www.w3.org/Graphics/SVG/1.1/DTD/svg11.dtd">
<!-- Generated by graphviz version 5.0.0 (20220707.1540)
 -->
<!-- Title: dependencies Pages: 1 -->
<svg width="778pt" height="247pt"
 viewBox="0.00 0.00 778.00 246.80" xmlns="http://www.w3.org/2000/svg" xmlns:xlink="http://www.w3.org/1999/xlink">
<g id="graph0" class="graph" transform="scale(1 1) rotate(0) translate(4 242.8)">
<title>dependencies</title>
<polygon fill="white" stroke="transparent" points="-4,4 -4,-242.8 774,-242.8 774,4 -4,4"/>
<text text-anchor="middle" x="385" y="-8.2" font-family="sans-serif" font-size="14.00">dependencies</text>
<g id="clust1" class="cluster">
<title>cluster_AppModule</title>
<polygon fill="none" stroke="black" stroke-dasharray="1,5" points="8,-32.8 8,-230.8 762,-230.8 762,-32.8 8,-32.8"/>
</g>
<g id="clust2" class="cluster">
<title>cluster_AppModule_declarations</title>
<polygon fill="none" stroke="black" points="632,-40.8 632,-92.8 754,-92.8 754,-40.8 632,-40.8"/>
</g>
<g id="clust4" class="cluster">
<title>cluster_AppModule_imports</title>
<polygon fill="none" stroke="black" points="480,-40.8 480,-92.8 624,-92.8 624,-40.8 480,-40.8"/>
</g>
<g id="clust6" class="cluster">
<title>cluster_AppModule_bootstrap</title>
<polygon fill="none" stroke="black" points="398,-170.8 398,-222.8 522,-222.8 522,-170.8 398,-170.8"/>
</g>
<g id="clust7" class="cluster">
<title>cluster_AppModule_providers</title>
<polygon fill="none" stroke="black" points="16,-40.8 16,-92.8 472,-92.8 472,-40.8 16,-40.8"/>
</g>
<!-- AppComponent -->
<g id="node1" class="node">
<title>AppComponent</title>
<polygon fill="#ffffb3" stroke="black" points="745.94,-84.8 640.06,-84.8 640.06,-48.8 745.94,-48.8 745.94,-84.8"/>
<text text-anchor="middle" x="693" y="-62.6" font-family="Times,serif" font-size="14.00">AppComponent</text>
</g>
<!-- AppModule -->
<g id="node2" class="node">
<title>AppModule</title>
<polygon fill="#8dd3c7" stroke="black" points="501.66,-149.8 498.66,-153.8 477.66,-153.8 474.66,-149.8 418.34,-149.8 418.34,-113.8 501.66,-113.8 501.66,-149.8"/>
<text text-anchor="middle" x="460" y="-127.6" font-family="Times,serif" font-size="14.00">AppModule</text>
</g>
<!-- AppComponent&#45;&gt;AppModule -->
<g id="edge1" class="edge">
<title>AppComponent&#45;&gt;AppModule</title>
<path fill="none" stroke="black" d="M693,-84.91C693,-104.14 693,-131.8 693,-131.8 693,-131.8 511.92,-131.8 511.92,-131.8"/>
<polygon fill="black" stroke="black" points="511.92,-128.3 501.92,-131.8 511.92,-135.3 511.92,-128.3"/>
</g>
<!-- AppComponent  -->
<g id="node4" class="node">
<title>AppComponent </title>
<polygon fill="#80b1d3" stroke="black" points="514.44,-214.8 405.56,-214.8 405.56,-178.8 514.44,-178.8 514.44,-214.8"/>
<text text-anchor="middle" x="460" y="-192.6" font-family="Times,serif" font-size="14.00">AppComponent </text>
</g>
<!-- AppModule&#45;&gt;AppComponent  -->
<g id="edge3" class="edge">
<title>AppModule&#45;&gt;AppComponent </title>
<path fill="none" stroke="black" stroke-dasharray="1,5" d="M460,-149.91C460,-149.91 460,-168.79 460,-168.79"/>
<polygon fill="black" stroke="black" points="456.5,-168.79 460,-178.79 463.5,-168.79 456.5,-168.79"/>
</g>
<!-- AppRoutingModule -->
<g id="node3" class="node">
<title>AppRoutingModule</title>
<polygon fill="#8dd3c7" stroke="black" points="616.28,-84.8 613.28,-88.8 592.28,-88.8 589.28,-84.8 487.72,-84.8 487.72,-48.8 616.28,-48.8 616.28,-84.8"/>
<text text-anchor="middle" x="552" y="-62.6" font-family="Times,serif" font-size="14.00">AppRoutingModule</text>
</g>
<!-- AppRoutingModule&#45;&gt;AppModule -->
<g id="edge2" class="edge">
<title>AppRoutingModule&#45;&gt;AppModule</title>
<path fill="none" stroke="black" d="M494.72,-84.91C494.72,-84.91 494.72,-103.79 494.72,-103.79"/>
<polygon fill="black" stroke="black" points="491.22,-103.79 494.72,-113.79 498.22,-103.79 491.22,-103.79"/>
</g>
<!-- CourBackEndService -->
<g id="node5" class="node">
<title>CourBackEndService</title>
<ellipse fill="#fdb462" stroke="black" cx="369" cy="-66.8" rx="94.91" ry="18"/>
<text text-anchor="middle" x="369" y="-62.6" font-family="Times,serif" font-size="14.00">CourBackEndService</text>
</g>
<!-- CourBackEndService&#45;&gt;AppModule -->
<g id="edge4" class="edge">
<title>CourBackEndService&#45;&gt;AppModule</title>
<path fill="none" stroke="black" d="M440.94,-78.72C440.94,-78.72 440.94,-103.57 440.94,-103.57"/>
<polygon fill="black" stroke="black" points="437.44,-103.57 440.94,-113.57 444.44,-103.57 437.44,-103.57"/>
</g>
<!-- ProfesseurBackEndService -->
<g id="node6" class="node">
<title>ProfesseurBackEndService</title>
<ellipse fill="#fdb462" stroke="black" cx="140" cy="-66.8" rx="116.31" ry="18"/>
<text text-anchor="middle" x="140" y="-62.6" font-family="Times,serif" font-size="14.00">ProfesseurBackEndService</text>
</g>
<!-- ProfesseurBackEndService&#45;&gt;AppModule -->
<g id="edge5" class="edge">
<title>ProfesseurBackEndService&#45;&gt;AppModule</title>
<path fill="none" stroke="black" d="M140,-84.91C140,-104.14 140,-131.8 140,-131.8 140,-131.8 408.17,-131.8 408.17,-131.8"/>
<polygon fill="black" stroke="black" points="408.17,-135.3 418.17,-131.8 408.17,-128.3 408.17,-135.3"/>
</g>
</g>
</svg>
