<?xml version="1.0" encoding="UTF-8" standalone="no"?>
<!DOCTYPE svg PUBLIC "-//W3C//DTD SVG 1.1//EN"
 "http://www.w3.org/Graphics/SVG/1.1/DTD/svg11.dtd">
<!-- Generated by graphviz version 5.0.0 (20220707.1540)
 -->
<!-- Title: dependencies Pages: 1 -->
<svg width="384pt" height="174pt"
 viewBox="0.00 0.00 384.00 173.80" xmlns="http://www.w3.org/2000/svg" xmlns:xlink="http://www.w3.org/1999/xlink">
<g id="graph0" class="graph" transform="scale(1 1) rotate(0) translate(4 169.8)">
<title>dependencies</title>
<polygon fill="white" stroke="transparent" points="-4,4 -4,-169.8 380,-169.8 380,4 -4,4"/>
<text text-anchor="middle" x="188" y="-8.2" font-family="sans-serif" font-size="14.00">dependencies</text>
<g id="clust1" class="cluster">
<title>cluster_ProfesseursPageModule</title>
<polygon fill="none" stroke="black" stroke-dasharray="1,5" points="8,-32.8 8,-157.8 368,-157.8 368,-32.8 8,-32.8"/>
</g>
<g id="clust2" class="cluster">
<title>cluster_ProfesseursPageModule_declarations</title>
<polygon fill="none" stroke="black" points="236,-40.8 236,-92.8 360,-92.8 360,-40.8 236,-40.8"/>
</g>
<g id="clust4" class="cluster">
<title>cluster_ProfesseursPageModule_imports</title>
<polygon fill="none" stroke="black" points="16,-40.8 16,-92.8 228,-92.8 228,-40.8 16,-40.8"/>
</g>
<!-- ProfesseursPage -->
<g id="node1" class="node">
<title>ProfesseursPage</title>
<polygon fill="#ffffb3" stroke="black" points="351.76,-84.8 244.24,-84.8 244.24,-48.8 351.76,-48.8 351.76,-84.8"/>
<text text-anchor="middle" x="298" y="-62.6" font-family="Times,serif" font-size="14.00">ProfesseursPage</text>
</g>
<!-- ProfesseursPageModule -->
<g id="node2" class="node">
<title>ProfesseursPageModule</title>
<polygon fill="#8dd3c7" stroke="black" points="278.81,-149.8 275.81,-153.8 254.81,-153.8 251.81,-149.8 127.19,-149.8 127.19,-113.8 278.81,-113.8 278.81,-149.8"/>
<text text-anchor="middle" x="203" y="-127.6" font-family="Times,serif" font-size="14.00">ProfesseursPageModule</text>
</g>
<!-- ProfesseursPage&#45;&gt;ProfesseursPageModule -->
<g id="edge1" class="edge">
<title>ProfesseursPage&#45;&gt;ProfesseursPageModule</title>
<path fill="none" stroke="black" d="M261.39,-84.91C261.39,-84.91 261.39,-103.79 261.39,-103.79"/>
<polygon fill="black" stroke="black" points="257.89,-103.79 261.39,-113.79 264.89,-103.79 257.89,-103.79"/>
</g>
<!-- ProfesseursPageRoutingModule -->
<g id="node3" class="node">
<title>ProfesseursPageRoutingModule</title>
<polygon fill="#8dd3c7" stroke="black" points="220.43,-84.8 217.43,-88.8 196.43,-88.8 193.43,-84.8 23.57,-84.8 23.57,-48.8 220.43,-48.8 220.43,-84.8"/>
<text text-anchor="middle" x="122" y="-62.6" font-family="Times,serif" font-size="14.00">ProfesseursPageRoutingModule</text>
</g>
<!-- ProfesseursPageRoutingModule&#45;&gt;ProfesseursPageModule -->
<g id="edge2" class="edge">
<title>ProfesseursPageRoutingModule&#45;&gt;ProfesseursPageModule</title>
<path fill="none" stroke="black" d="M173.78,-84.91C173.78,-84.91 173.78,-103.79 173.78,-103.79"/>
<polygon fill="black" stroke="black" points="170.28,-103.79 173.78,-113.79 177.28,-103.79 170.28,-103.79"/>
</g>
</g>
</svg>
