<?xml version="1.0" encoding="UTF-8" standalone="no"?>
<!DOCTYPE svg PUBLIC "-//W3C//DTD SVG 1.1//EN"
 "http://www.w3.org/Graphics/SVG/1.1/DTD/svg11.dtd">
<!-- Generated by graphviz version 5.0.0 (20220707.1540)
 -->
<!-- Title: dependencies Pages: 1 -->
<svg width="432pt" height="174pt"
 viewBox="0.00 0.00 432.00 173.80" xmlns="http://www.w3.org/2000/svg" xmlns:xlink="http://www.w3.org/1999/xlink">
<g id="graph0" class="graph" transform="scale(1 1) rotate(0) translate(4 169.8)">
<title>dependencies</title>
<polygon fill="white" stroke="transparent" points="-4,4 -4,-169.8 428,-169.8 428,4 -4,4"/>
<text text-anchor="middle" x="212" y="-8.2" font-family="sans-serif" font-size="14.00">dependencies</text>
<g id="clust1" class="cluster">
<title>cluster_RechecheCoursPageModule</title>
<polygon fill="none" stroke="black" stroke-dasharray="1,5" points="8,-32.8 8,-157.8 416,-157.8 416,-32.8 8,-32.8"/>
</g>
<g id="clust4" class="cluster">
<title>cluster_RechecheCoursPageModule_imports</title>
<polygon fill="none" stroke="black" points="172,-40.8 172,-92.8 408,-92.8 408,-40.8 172,-40.8"/>
</g>
<g id="clust2" class="cluster">
<title>cluster_RechecheCoursPageModule_declarations</title>
<polygon fill="none" stroke="black" points="16,-40.8 16,-92.8 164,-92.8 164,-40.8 16,-40.8"/>
</g>
<!-- RechecheCoursPage -->
<g id="node1" class="node">
<title>RechecheCoursPage</title>
<polygon fill="#ffffb3" stroke="black" points="155.57,-84.8 24.43,-84.8 24.43,-48.8 155.57,-48.8 155.57,-84.8"/>
<text text-anchor="middle" x="90" y="-62.6" font-family="Times,serif" font-size="14.00">RechecheCoursPage</text>
</g>
<!-- RechecheCoursPageModule -->
<g id="node2" class="node">
<title>RechecheCoursPageModule</title>
<polygon fill="#8dd3c7" stroke="black" points="283.12,-149.8 280.12,-153.8 259.12,-153.8 256.12,-149.8 108.88,-149.8 108.88,-113.8 283.12,-113.8 283.12,-149.8"/>
<text text-anchor="middle" x="196" y="-127.6" font-family="Times,serif" font-size="14.00">RechecheCoursPageModule</text>
</g>
<!-- RechecheCoursPage&#45;&gt;RechecheCoursPageModule -->
<g id="edge1" class="edge">
<title>RechecheCoursPage&#45;&gt;RechecheCoursPageModule</title>
<path fill="none" stroke="black" d="M132.11,-84.91C132.11,-84.91 132.11,-103.79 132.11,-103.79"/>
<polygon fill="black" stroke="black" points="128.61,-103.79 132.11,-113.79 135.61,-103.79 128.61,-103.79"/>
</g>
<!-- RechecheCoursPageRoutingModule -->
<g id="node3" class="node">
<title>RechecheCoursPageRoutingModule</title>
<polygon fill="#8dd3c7" stroke="black" points="399.74,-84.8 396.74,-88.8 375.74,-88.8 372.74,-84.8 180.26,-84.8 180.26,-48.8 399.74,-48.8 399.74,-84.8"/>
<text text-anchor="middle" x="290" y="-62.6" font-family="Times,serif" font-size="14.00">RechecheCoursPageRoutingModule</text>
</g>
<!-- RechecheCoursPageRoutingModule&#45;&gt;RechecheCoursPageModule -->
<g id="edge2" class="edge">
<title>RechecheCoursPageRoutingModule&#45;&gt;RechecheCoursPageModule</title>
<path fill="none" stroke="black" d="M231.72,-84.91C231.72,-84.91 231.72,-103.79 231.72,-103.79"/>
<polygon fill="black" stroke="black" points="228.22,-103.79 231.72,-113.79 235.22,-103.79 228.22,-103.79"/>
</g>
</g>
</svg>
