<?xml version="1.0" encoding="UTF-8" standalone="no"?>
<!DOCTYPE svg PUBLIC "-//W3C//DTD SVG 1.1//EN"
 "http://www.w3.org/Graphics/SVG/1.1/DTD/svg11.dtd">
<!-- Generated by graphviz version 5.0.0 (20220707.1540)
 -->
<!-- Title: dependencies Pages: 1 -->
<svg width="388pt" height="174pt"
 viewBox="0.00 0.00 388.00 173.80" xmlns="http://www.w3.org/2000/svg" xmlns:xlink="http://www.w3.org/1999/xlink">
<g id="graph0" class="graph" transform="scale(1 1) rotate(0) translate(4 169.8)">
<title>dependencies</title>
<polygon fill="white" stroke="transparent" points="-4,4 -4,-169.8 384,-169.8 384,4 -4,4"/>
<text text-anchor="middle" x="190" y="-8.2" font-family="sans-serif" font-size="14.00">dependencies</text>
<g id="clust1" class="cluster">
<title>cluster_SaisieCoursPageModule</title>
<polygon fill="none" stroke="black" stroke-dasharray="1,5" points="8,-32.8 8,-157.8 372,-157.8 372,-32.8 8,-32.8"/>
</g>
<g id="clust2" class="cluster">
<title>cluster_SaisieCoursPageModule_declarations</title>
<polygon fill="none" stroke="black" points="238,-40.8 238,-92.8 364,-92.8 364,-40.8 238,-40.8"/>
</g>
<g id="clust4" class="cluster">
<title>cluster_SaisieCoursPageModule_imports</title>
<polygon fill="none" stroke="black" points="16,-40.8 16,-92.8 230,-92.8 230,-40.8 16,-40.8"/>
</g>
<!-- SaisieCoursPage -->
<g id="node1" class="node">
<title>SaisieCoursPage</title>
<polygon fill="#ffffb3" stroke="black" points="356.1,-84.8 245.9,-84.8 245.9,-48.8 356.1,-48.8 356.1,-84.8"/>
<text text-anchor="middle" x="301" y="-62.6" font-family="Times,serif" font-size="14.00">SaisieCoursPage</text>
</g>
<!-- SaisieCoursPageModule -->
<g id="node2" class="node">
<title>SaisieCoursPageModule</title>
<polygon fill="#8dd3c7" stroke="black" points="281.66,-149.8 278.66,-153.8 257.66,-153.8 254.66,-149.8 128.34,-149.8 128.34,-113.8 281.66,-113.8 281.66,-149.8"/>
<text text-anchor="middle" x="205" y="-127.6" font-family="Times,serif" font-size="14.00">SaisieCoursPageModule</text>
</g>
<!-- SaisieCoursPage&#45;&gt;SaisieCoursPageModule -->
<g id="edge1" class="edge">
<title>SaisieCoursPage&#45;&gt;SaisieCoursPageModule</title>
<path fill="none" stroke="black" d="M263.89,-84.91C263.89,-84.91 263.89,-103.79 263.89,-103.79"/>
<polygon fill="black" stroke="black" points="260.39,-103.79 263.89,-113.79 267.39,-103.79 260.39,-103.79"/>
</g>
<!-- SaisieCoursPageRoutingModule -->
<g id="node3" class="node">
<title>SaisieCoursPageRoutingModule</title>
<polygon fill="#8dd3c7" stroke="black" points="222.27,-84.8 219.27,-88.8 198.27,-88.8 195.27,-84.8 23.73,-84.8 23.73,-48.8 222.27,-48.8 222.27,-84.8"/>
<text text-anchor="middle" x="123" y="-62.6" font-family="Times,serif" font-size="14.00">SaisieCoursPageRoutingModule</text>
</g>
<!-- SaisieCoursPageRoutingModule&#45;&gt;SaisieCoursPageModule -->
<g id="edge2" class="edge">
<title>SaisieCoursPageRoutingModule&#45;&gt;SaisieCoursPageModule</title>
<path fill="none" stroke="black" d="M175.28,-84.91C175.28,-84.91 175.28,-103.79 175.28,-103.79"/>
<polygon fill="black" stroke="black" points="171.78,-103.79 175.28,-113.79 178.78,-103.79 171.78,-103.79"/>
</g>
</g>
</svg>
