<?xml version="1.0" encoding="UTF-8" standalone="no"?>
<!DOCTYPE svg PUBLIC "-//W3C//DTD SVG 1.1//EN"
 "http://www.w3.org/Graphics/SVG/1.1/DTD/svg11.dtd">
<!-- Generated by graphviz version 5.0.0 (20220707.1540)
 -->
<!-- Title: dependencies Pages: 1 -->
<svg width="4000pt" height="247pt"
 viewBox="0.00 0.00 4000.00 246.80" xmlns="http://www.w3.org/2000/svg" xmlns:xlink="http://www.w3.org/1999/xlink">
<g id="graph0" class="graph" transform="scale(1 1) rotate(0) translate(4 242.8)">
<title>dependencies</title>
<polygon fill="white" stroke="transparent" points="-4,4 -4,-242.8 3996,-242.8 3996,4 -4,4"/>
<text text-anchor="middle" x="1996" y="-8.2" font-family="sans-serif" font-size="14.00">dependencies</text>
<g id="clust1" class="cluster">
<title>cluster_AppModule</title>
<polygon fill="none" stroke="black" stroke-dasharray="1,5" points="8,-32.8 8,-230.8 762,-230.8 762,-32.8 8,-32.8"/>
</g>
<g id="clust2" class="cluster">
<title>cluster_AppModule_declarations</title>
<polygon fill="none" stroke="black" points="632,-40.8 632,-92.8 754,-92.8 754,-40.8 632,-40.8"/>
</g>
<g id="clust4" class="cluster">
<title>cluster_AppModule_imports</title>
<polygon fill="none" stroke="black" points="480,-40.8 480,-92.8 624,-92.8 624,-40.8 480,-40.8"/>
</g>
<g id="clust6" class="cluster">
<title>cluster_AppModule_bootstrap</title>
<polygon fill="none" stroke="black" points="398,-170.8 398,-222.8 522,-222.8 522,-170.8 398,-170.8"/>
</g>
<g id="clust7" class="cluster">
<title>cluster_AppModule_providers</title>
<polygon fill="none" stroke="black" points="16,-40.8 16,-92.8 472,-92.8 472,-40.8 16,-40.8"/>
</g>
<g id="clust14" class="cluster">
<title>cluster_CoursPageModule</title>
<polygon fill="none" stroke="black" stroke-dasharray="1,5" points="770,-32.8 770,-157.8 1068,-157.8 1068,-32.8 770,-32.8"/>
</g>
<g id="clust15" class="cluster">
<title>cluster_CoursPageModule_declarations</title>
<polygon fill="none" stroke="black" points="968,-40.8 968,-92.8 1060,-92.8 1060,-40.8 968,-40.8"/>
</g>
<g id="clust17" class="cluster">
<title>cluster_CoursPageModule_imports</title>
<polygon fill="none" stroke="black" points="778,-40.8 778,-92.8 960,-92.8 960,-40.8 778,-40.8"/>
</g>
<g id="clust27" class="cluster">
<title>cluster_ExploreContainerComponentModule</title>
<polygon fill="none" stroke="black" stroke-dasharray="1,5" points="1076,-32.8 1076,-230.8 1316,-230.8 1316,-32.8 1076,-32.8"/>
</g>
<g id="clust28" class="cluster">
<title>cluster_ExploreContainerComponentModule_declarations</title>
<polygon fill="none" stroke="black" points="1098,-40.8 1098,-92.8 1294,-92.8 1294,-40.8 1098,-40.8"/>
</g>
<g id="clust31" class="cluster">
<title>cluster_ExploreContainerComponentModule_exports</title>
<polygon fill="none" stroke="black" points="1096,-170.8 1096,-222.8 1296,-222.8 1296,-170.8 1096,-170.8"/>
</g>
<g id="clust34" class="cluster">
<title>cluster_ProfesseursPageModule</title>
<polygon fill="none" stroke="black" stroke-dasharray="1,5" points="1324,-32.8 1324,-157.8 1684,-157.8 1684,-32.8 1324,-32.8"/>
</g>
<g id="clust35" class="cluster">
<title>cluster_ProfesseursPageModule_declarations</title>
<polygon fill="none" stroke="black" points="1552,-40.8 1552,-92.8 1676,-92.8 1676,-40.8 1552,-40.8"/>
</g>
<g id="clust37" class="cluster">
<title>cluster_ProfesseursPageModule_imports</title>
<polygon fill="none" stroke="black" points="1332,-40.8 1332,-92.8 1544,-92.8 1544,-40.8 1332,-40.8"/>
</g>
<g id="clust47" class="cluster">
<title>cluster_RechecheCoursPageModule</title>
<polygon fill="none" stroke="black" stroke-dasharray="1,5" points="1692,-32.8 1692,-157.8 2100,-157.8 2100,-32.8 1692,-32.8"/>
</g>
<g id="clust48" class="cluster">
<title>cluster_RechecheCoursPageModule_declarations</title>
<polygon fill="none" stroke="black" points="1944,-40.8 1944,-92.8 2092,-92.8 2092,-40.8 1944,-40.8"/>
</g>
<g id="clust50" class="cluster">
<title>cluster_RechecheCoursPageModule_imports</title>
<polygon fill="none" stroke="black" points="1700,-40.8 1700,-92.8 1936,-92.8 1936,-40.8 1700,-40.8"/>
</g>
<g id="clust60" class="cluster">
<title>cluster_RechercheProfesseursPageModule</title>
<polygon fill="none" stroke="black" stroke-dasharray="1,5" points="2108,-32.8 2108,-157.8 2586,-157.8 2586,-32.8 2108,-32.8"/>
</g>
<g id="clust61" class="cluster">
<title>cluster_RechercheProfesseursPageModule_declarations</title>
<polygon fill="none" stroke="black" points="2396,-40.8 2396,-92.8 2578,-92.8 2578,-40.8 2396,-40.8"/>
</g>
<g id="clust63" class="cluster">
<title>cluster_RechercheProfesseursPageModule_imports</title>
<polygon fill="none" stroke="black" points="2116,-40.8 2116,-92.8 2388,-92.8 2388,-40.8 2116,-40.8"/>
</g>
<g id="clust73" class="cluster">
<title>cluster_SaisieCoursPageModule</title>
<polygon fill="none" stroke="black" stroke-dasharray="1,5" points="2594,-32.8 2594,-157.8 2958,-157.8 2958,-32.8 2594,-32.8"/>
</g>
<g id="clust74" class="cluster">
<title>cluster_SaisieCoursPageModule_declarations</title>
<polygon fill="none" stroke="black" points="2824,-40.8 2824,-92.8 2950,-92.8 2950,-40.8 2824,-40.8"/>
</g>
<g id="clust76" class="cluster">
<title>cluster_SaisieCoursPageModule_imports</title>
<polygon fill="none" stroke="black" points="2602,-40.8 2602,-92.8 2816,-92.8 2816,-40.8 2602,-40.8"/>
</g>
<g id="clust86" class="cluster">
<title>cluster_SaisieProfesseursPageModule</title>
<polygon fill="none" stroke="black" stroke-dasharray="1,5" points="2966,-32.8 2966,-157.8 3394,-157.8 3394,-32.8 2966,-32.8"/>
</g>
<g id="clust87" class="cluster">
<title>cluster_SaisieProfesseursPageModule_declarations</title>
<polygon fill="none" stroke="black" points="3228,-40.8 3228,-92.8 3386,-92.8 3386,-40.8 3228,-40.8"/>
</g>
<g id="clust89" class="cluster">
<title>cluster_SaisieProfesseursPageModule_imports</title>
<polygon fill="none" stroke="black" points="2974,-40.8 2974,-92.8 3220,-92.8 3220,-40.8 2974,-40.8"/>
</g>
<g id="clust99" class="cluster">
<title>cluster_Tab3PageModule</title>
<polygon fill="none" stroke="black" stroke-dasharray="1,5" points="3402,-32.8 3402,-157.8 3690,-157.8 3690,-32.8 3402,-32.8"/>
</g>
<g id="clust100" class="cluster">
<title>cluster_Tab3PageModule_declarations</title>
<polygon fill="none" stroke="black" points="3594,-40.8 3594,-92.8 3682,-92.8 3682,-40.8 3594,-40.8"/>
</g>
<g id="clust102" class="cluster">
<title>cluster_Tab3PageModule_imports</title>
<polygon fill="none" stroke="black" points="3410,-40.8 3410,-92.8 3586,-92.8 3586,-40.8 3410,-40.8"/>
</g>
<g id="clust112" class="cluster">
<title>cluster_TabsPageModule</title>
<polygon fill="none" stroke="black" stroke-dasharray="1,5" points="3698,-32.8 3698,-157.8 3984,-157.8 3984,-32.8 3698,-32.8"/>
</g>
<g id="clust113" class="cluster">
<title>cluster_TabsPageModule_declarations</title>
<polygon fill="none" stroke="black" points="3890,-40.8 3890,-92.8 3976,-92.8 3976,-40.8 3890,-40.8"/>
</g>
<g id="clust115" class="cluster">
<title>cluster_TabsPageModule_imports</title>
<polygon fill="none" stroke="black" points="3706,-40.8 3706,-92.8 3882,-92.8 3882,-40.8 3706,-40.8"/>
</g>
<!-- AppComponent -->
<g id="node1" class="node">
<title>AppComponent</title>
<polygon fill="#ffffb3" stroke="black" points="745.94,-84.8 640.06,-84.8 640.06,-48.8 745.94,-48.8 745.94,-84.8"/>
<text text-anchor="middle" x="693" y="-62.6" font-family="Times,serif" font-size="14.00">AppComponent</text>
</g>
<!-- AppModule -->
<g id="node2" class="node">
<title>AppModule</title>
<polygon fill="#8dd3c7" stroke="black" points="501.66,-149.8 498.66,-153.8 477.66,-153.8 474.66,-149.8 418.34,-149.8 418.34,-113.8 501.66,-113.8 501.66,-149.8"/>
<text text-anchor="middle" x="460" y="-127.6" font-family="Times,serif" font-size="14.00">AppModule</text>
</g>
<!-- AppComponent&#45;&gt;AppModule -->
<g id="edge1" class="edge">
<title>AppComponent&#45;&gt;AppModule</title>
<path fill="none" stroke="black" d="M693,-84.91C693,-104.14 693,-131.8 693,-131.8 693,-131.8 511.92,-131.8 511.92,-131.8"/>
<polygon fill="black" stroke="black" points="511.92,-128.3 501.92,-131.8 511.92,-135.3 511.92,-128.3"/>
</g>
<!-- AppComponent  -->
<g id="node4" class="node">
<title>AppComponent </title>
<polygon fill="#80b1d3" stroke="black" points="514.44,-214.8 405.56,-214.8 405.56,-178.8 514.44,-178.8 514.44,-214.8"/>
<text text-anchor="middle" x="460" y="-192.6" font-family="Times,serif" font-size="14.00">AppComponent </text>
</g>
<!-- AppModule&#45;&gt;AppComponent  -->
<g id="edge3" class="edge">
<title>AppModule&#45;&gt;AppComponent </title>
<path fill="none" stroke="black" stroke-dasharray="1,5" d="M460,-149.91C460,-149.91 460,-168.79 460,-168.79"/>
<polygon fill="black" stroke="black" points="456.5,-168.79 460,-178.79 463.5,-168.79 456.5,-168.79"/>
</g>
<!-- AppRoutingModule -->
<g id="node3" class="node">
<title>AppRoutingModule</title>
<polygon fill="#8dd3c7" stroke="black" points="616.28,-84.8 613.28,-88.8 592.28,-88.8 589.28,-84.8 487.72,-84.8 487.72,-48.8 616.28,-48.8 616.28,-84.8"/>
<text text-anchor="middle" x="552" y="-62.6" font-family="Times,serif" font-size="14.00">AppRoutingModule</text>
</g>
<!-- AppRoutingModule&#45;&gt;AppModule -->
<g id="edge2" class="edge">
<title>AppRoutingModule&#45;&gt;AppModule</title>
<path fill="none" stroke="black" d="M494.72,-84.91C494.72,-84.91 494.72,-103.79 494.72,-103.79"/>
<polygon fill="black" stroke="black" points="491.22,-103.79 494.72,-113.79 498.22,-103.79 491.22,-103.79"/>
</g>
<!-- CourBackEndService -->
<g id="node5" class="node">
<title>CourBackEndService</title>
<ellipse fill="#fdb462" stroke="black" cx="369" cy="-66.8" rx="94.91" ry="18"/>
<text text-anchor="middle" x="369" y="-62.6" font-family="Times,serif" font-size="14.00">CourBackEndService</text>
</g>
<!-- CourBackEndService&#45;&gt;AppModule -->
<g id="edge4" class="edge">
<title>CourBackEndService&#45;&gt;AppModule</title>
<path fill="none" stroke="black" d="M440.94,-78.72C440.94,-78.72 440.94,-103.57 440.94,-103.57"/>
<polygon fill="black" stroke="black" points="437.44,-103.57 440.94,-113.57 444.44,-103.57 437.44,-103.57"/>
</g>
<!-- ProfesseurBackEndService -->
<g id="node6" class="node">
<title>ProfesseurBackEndService</title>
<ellipse fill="#fdb462" stroke="black" cx="140" cy="-66.8" rx="116.31" ry="18"/>
<text text-anchor="middle" x="140" y="-62.6" font-family="Times,serif" font-size="14.00">ProfesseurBackEndService</text>
</g>
<!-- ProfesseurBackEndService&#45;&gt;AppModule -->
<g id="edge5" class="edge">
<title>ProfesseurBackEndService&#45;&gt;AppModule</title>
<path fill="none" stroke="black" d="M140,-84.91C140,-104.14 140,-131.8 140,-131.8 140,-131.8 408.17,-131.8 408.17,-131.8"/>
<polygon fill="black" stroke="black" points="408.17,-135.3 418.17,-131.8 408.17,-128.3 408.17,-135.3"/>
</g>
<!-- CoursPage -->
<g id="node7" class="node">
<title>CoursPage</title>
<polygon fill="#ffffb3" stroke="black" points="1052.16,-84.8 975.84,-84.8 975.84,-48.8 1052.16,-48.8 1052.16,-84.8"/>
<text text-anchor="middle" x="1014" y="-62.6" font-family="Times,serif" font-size="14.00">CoursPage</text>
</g>
<!-- CoursPageModule -->
<g id="node8" class="node">
<title>CoursPageModule</title>
<polygon fill="#8dd3c7" stroke="black" points="994.21,-149.8 991.21,-153.8 970.21,-153.8 967.21,-149.8 873.79,-149.8 873.79,-113.8 994.21,-113.8 994.21,-149.8"/>
<text text-anchor="middle" x="934" y="-127.6" font-family="Times,serif" font-size="14.00">CoursPageModule</text>
</g>
<!-- CoursPage&#45;&gt;CoursPageModule -->
<g id="edge6" class="edge">
<title>CoursPage&#45;&gt;CoursPageModule</title>
<path fill="none" stroke="black" d="M984.89,-84.91C984.89,-84.91 984.89,-103.79 984.89,-103.79"/>
<polygon fill="black" stroke="black" points="981.39,-103.79 984.89,-113.79 988.39,-103.79 981.39,-103.79"/>
</g>
<!-- CoursPageRoutingModule -->
<g id="node9" class="node">
<title>CoursPageRoutingModule</title>
<polygon fill="#8dd3c7" stroke="black" points="951.83,-84.8 948.83,-88.8 927.83,-88.8 924.83,-84.8 786.17,-84.8 786.17,-48.8 951.83,-48.8 951.83,-84.8"/>
<text text-anchor="middle" x="869" y="-62.6" font-family="Times,serif" font-size="14.00">CoursPageRoutingModule</text>
</g>
<!-- CoursPageRoutingModule&#45;&gt;CoursPageModule -->
<g id="edge7" class="edge">
<title>CoursPageRoutingModule&#45;&gt;CoursPageModule</title>
<path fill="none" stroke="black" d="M912.78,-84.91C912.78,-84.91 912.78,-103.79 912.78,-103.79"/>
<polygon fill="black" stroke="black" points="909.28,-103.79 912.78,-113.79 916.28,-103.79 909.28,-103.79"/>
</g>
<!-- ExploreContainerComponent -->
<g id="node10" class="node">
<title>ExploreContainerComponent</title>
<polygon fill="#ffffb3" stroke="black" points="1286.36,-84.8 1105.64,-84.8 1105.64,-48.8 1286.36,-48.8 1286.36,-84.8"/>
<text text-anchor="middle" x="1196" y="-62.6" font-family="Times,serif" font-size="14.00">ExploreContainerComponent</text>
</g>
<!-- ExploreContainerComponentModule -->
<g id="node11" class="node">
<title>ExploreContainerComponentModule</title>
<polygon fill="#8dd3c7" stroke="black" points="1308.41,-149.8 1305.41,-153.8 1284.41,-153.8 1281.41,-149.8 1083.59,-149.8 1083.59,-113.8 1308.41,-113.8 1308.41,-149.8"/>
<text text-anchor="middle" x="1196" y="-127.6" font-family="Times,serif" font-size="14.00">ExploreContainerComponentModule</text>
</g>
<!-- ExploreContainerComponent&#45;&gt;ExploreContainerComponentModule -->
<g id="edge8" class="edge">
<title>ExploreContainerComponent&#45;&gt;ExploreContainerComponentModule</title>
<path fill="none" stroke="black" d="M1196,-84.91C1196,-84.91 1196,-103.79 1196,-103.79"/>
<polygon fill="black" stroke="black" points="1192.5,-103.79 1196,-113.79 1199.5,-103.79 1192.5,-103.79"/>
</g>
<!-- ExploreContainerComponent  -->
<g id="node12" class="node">
<title>ExploreContainerComponent </title>
<polygon fill="#fb8072" stroke="black" points="1288.36,-214.8 1103.64,-214.8 1103.64,-178.8 1288.36,-178.8 1288.36,-214.8"/>
<text text-anchor="middle" x="1196" y="-192.6" font-family="Times,serif" font-size="14.00">ExploreContainerComponent </text>
</g>
<!-- ExploreContainerComponentModule&#45;&gt;ExploreContainerComponent  -->
<g id="edge9" class="edge">
<title>ExploreContainerComponentModule&#45;&gt;ExploreContainerComponent </title>
<path fill="none" stroke="black" stroke-dasharray="5,2" d="M1196,-149.91C1196,-149.91 1196,-168.79 1196,-168.79"/>
<polygon fill="black" stroke="black" points="1192.5,-168.79 1196,-178.79 1199.5,-168.79 1192.5,-168.79"/>
</g>
<!-- ProfesseursPage -->
<g id="node13" class="node">
<title>ProfesseursPage</title>
<polygon fill="#ffffb3" stroke="black" points="1667.76,-84.8 1560.24,-84.8 1560.24,-48.8 1667.76,-48.8 1667.76,-84.8"/>
<text text-anchor="middle" x="1614" y="-62.6" font-family="Times,serif" font-size="14.00">ProfesseursPage</text>
</g>
<!-- ProfesseursPageModule -->
<g id="node14" class="node">
<title>ProfesseursPageModule</title>
<polygon fill="#8dd3c7" stroke="black" points="1594.81,-149.8 1591.81,-153.8 1570.81,-153.8 1567.81,-149.8 1443.19,-149.8 1443.19,-113.8 1594.81,-113.8 1594.81,-149.8"/>
<text text-anchor="middle" x="1519" y="-127.6" font-family="Times,serif" font-size="14.00">ProfesseursPageModule</text>
</g>
<!-- ProfesseursPage&#45;&gt;ProfesseursPageModule -->
<g id="edge10" class="edge">
<title>ProfesseursPage&#45;&gt;ProfesseursPageModule</title>
<path fill="none" stroke="black" d="M1577.39,-84.91C1577.39,-84.91 1577.39,-103.79 1577.39,-103.79"/>
<polygon fill="black" stroke="black" points="1573.89,-103.79 1577.39,-113.79 1580.89,-103.79 1573.89,-103.79"/>
</g>
<!-- ProfesseursPageRoutingModule -->
<g id="node15" class="node">
<title>ProfesseursPageRoutingModule</title>
<polygon fill="#8dd3c7" stroke="black" points="1536.43,-84.8 1533.43,-88.8 1512.43,-88.8 1509.43,-84.8 1339.57,-84.8 1339.57,-48.8 1536.43,-48.8 1536.43,-84.8"/>
<text text-anchor="middle" x="1438" y="-62.6" font-family="Times,serif" font-size="14.00">ProfesseursPageRoutingModule</text>
</g>
<!-- ProfesseursPageRoutingModule&#45;&gt;ProfesseursPageModule -->
<g id="edge11" class="edge">
<title>ProfesseursPageRoutingModule&#45;&gt;ProfesseursPageModule</title>
<path fill="none" stroke="black" d="M1489.78,-84.91C1489.78,-84.91 1489.78,-103.79 1489.78,-103.79"/>
<polygon fill="black" stroke="black" points="1486.28,-103.79 1489.78,-113.79 1493.28,-103.79 1486.28,-103.79"/>
</g>
<!-- RechecheCoursPage -->
<g id="node16" class="node">
<title>RechecheCoursPage</title>
<polygon fill="#ffffb3" stroke="black" points="2083.57,-84.8 1952.43,-84.8 1952.43,-48.8 2083.57,-48.8 2083.57,-84.8"/>
<text text-anchor="middle" x="2018" y="-62.6" font-family="Times,serif" font-size="14.00">RechecheCoursPage</text>
</g>
<!-- RechecheCoursPageModule -->
<g id="node17" class="node">
<title>RechecheCoursPageModule</title>
<polygon fill="#8dd3c7" stroke="black" points="1998.12,-149.8 1995.12,-153.8 1974.12,-153.8 1971.12,-149.8 1823.88,-149.8 1823.88,-113.8 1998.12,-113.8 1998.12,-149.8"/>
<text text-anchor="middle" x="1911" y="-127.6" font-family="Times,serif" font-size="14.00">RechecheCoursPageModule</text>
</g>
<!-- RechecheCoursPage&#45;&gt;RechecheCoursPageModule -->
<g id="edge12" class="edge">
<title>RechecheCoursPage&#45;&gt;RechecheCoursPageModule</title>
<path fill="none" stroke="black" d="M1975.39,-84.91C1975.39,-84.91 1975.39,-103.79 1975.39,-103.79"/>
<polygon fill="black" stroke="black" points="1971.89,-103.79 1975.39,-113.79 1978.89,-103.79 1971.89,-103.79"/>
</g>
<!-- RechecheCoursPageRoutingModule -->
<g id="node18" class="node">
<title>RechecheCoursPageRoutingModule</title>
<polygon fill="#8dd3c7" stroke="black" points="1927.74,-84.8 1924.74,-88.8 1903.74,-88.8 1900.74,-84.8 1708.26,-84.8 1708.26,-48.8 1927.74,-48.8 1927.74,-84.8"/>
<text text-anchor="middle" x="1818" y="-62.6" font-family="Times,serif" font-size="14.00">RechecheCoursPageRoutingModule</text>
</g>
<!-- RechecheCoursPageRoutingModule&#45;&gt;RechecheCoursPageModule -->
<g id="edge13" class="edge">
<title>RechecheCoursPageRoutingModule&#45;&gt;RechecheCoursPageModule</title>
<path fill="none" stroke="black" d="M1875.78,-84.91C1875.78,-84.91 1875.78,-103.79 1875.78,-103.79"/>
<polygon fill="black" stroke="black" points="1872.28,-103.79 1875.78,-113.79 1879.28,-103.79 1872.28,-103.79"/>
</g>
<!-- RechercheProfesseursPage -->
<g id="node19" class="node">
<title>RechercheProfesseursPage</title>
<polygon fill="#ffffb3" stroke="black" points="2570.33,-84.8 2403.67,-84.8 2403.67,-48.8 2570.33,-48.8 2570.33,-84.8"/>
<text text-anchor="middle" x="2487" y="-62.6" font-family="Times,serif" font-size="14.00">RechercheProfesseursPage</text>
</g>
<!-- RechercheProfesseursPageModule -->
<g id="node20" class="node">
<title>RechercheProfesseursPageModule</title>
<polygon fill="#8dd3c7" stroke="black" points="2467.38,-149.8 2464.38,-153.8 2443.38,-153.8 2440.38,-149.8 2256.62,-149.8 2256.62,-113.8 2467.38,-113.8 2467.38,-149.8"/>
<text text-anchor="middle" x="2362" y="-127.6" font-family="Times,serif" font-size="14.00">RechercheProfesseursPageModule</text>
</g>
<!-- RechercheProfesseursPage&#45;&gt;RechercheProfesseursPageModule -->
<g id="edge14" class="edge">
<title>RechercheProfesseursPage&#45;&gt;RechercheProfesseursPageModule</title>
<path fill="none" stroke="black" d="M2435.39,-84.91C2435.39,-84.91 2435.39,-103.79 2435.39,-103.79"/>
<polygon fill="black" stroke="black" points="2431.89,-103.79 2435.39,-113.79 2438.89,-103.79 2431.89,-103.79"/>
</g>
<!-- RechercheProfesseursPageRoutingModule -->
<g id="node21" class="node">
<title>RechercheProfesseursPageRoutingModule</title>
<polygon fill="#8dd3c7" stroke="black" points="2380,-84.8 2377,-88.8 2356,-88.8 2353,-84.8 2124,-84.8 2124,-48.8 2380,-48.8 2380,-84.8"/>
<text text-anchor="middle" x="2252" y="-62.6" font-family="Times,serif" font-size="14.00">RechercheProfesseursPageRoutingModule</text>
</g>
<!-- RechercheProfesseursPageRoutingModule&#45;&gt;RechercheProfesseursPageModule -->
<g id="edge15" class="edge">
<title>RechercheProfesseursPageRoutingModule&#45;&gt;RechercheProfesseursPageModule</title>
<path fill="none" stroke="black" d="M2318.28,-84.91C2318.28,-84.91 2318.28,-103.79 2318.28,-103.79"/>
<polygon fill="black" stroke="black" points="2314.78,-103.79 2318.28,-113.79 2321.78,-103.79 2314.78,-103.79"/>
</g>
<!-- SaisieCoursPage -->
<g id="node22" class="node">
<title>SaisieCoursPage</title>
<polygon fill="#ffffb3" stroke="black" points="2942.1,-84.8 2831.9,-84.8 2831.9,-48.8 2942.1,-48.8 2942.1,-84.8"/>
<text text-anchor="middle" x="2887" y="-62.6" font-family="Times,serif" font-size="14.00">SaisieCoursPage</text>
</g>
<!-- SaisieCoursPageModule -->
<g id="node23" class="node">
<title>SaisieCoursPageModule</title>
<polygon fill="#8dd3c7" stroke="black" points="2867.66,-149.8 2864.66,-153.8 2843.66,-153.8 2840.66,-149.8 2714.34,-149.8 2714.34,-113.8 2867.66,-113.8 2867.66,-149.8"/>
<text text-anchor="middle" x="2791" y="-127.6" font-family="Times,serif" font-size="14.00">SaisieCoursPageModule</text>
</g>
<!-- SaisieCoursPage&#45;&gt;SaisieCoursPageModule -->
<g id="edge16" class="edge">
<title>SaisieCoursPage&#45;&gt;SaisieCoursPageModule</title>
<path fill="none" stroke="black" d="M2849.89,-84.91C2849.89,-84.91 2849.89,-103.79 2849.89,-103.79"/>
<polygon fill="black" stroke="black" points="2846.39,-103.79 2849.89,-113.79 2853.39,-103.79 2846.39,-103.79"/>
</g>
<!-- SaisieCoursPageRoutingModule -->
<g id="node24" class="node">
<title>SaisieCoursPageRoutingModule</title>
<polygon fill="#8dd3c7" stroke="black" points="2808.27,-84.8 2805.27,-88.8 2784.27,-88.8 2781.27,-84.8 2609.73,-84.8 2609.73,-48.8 2808.27,-48.8 2808.27,-84.8"/>
<text text-anchor="middle" x="2709" y="-62.6" font-family="Times,serif" font-size="14.00">SaisieCoursPageRoutingModule</text>
</g>
<!-- SaisieCoursPageRoutingModule&#45;&gt;SaisieCoursPageModule -->
<g id="edge17" class="edge">
<title>SaisieCoursPageRoutingModule&#45;&gt;SaisieCoursPageModule</title>
<path fill="none" stroke="black" d="M2761.28,-84.91C2761.28,-84.91 2761.28,-103.79 2761.28,-103.79"/>
<polygon fill="black" stroke="black" points="2757.78,-103.79 2761.28,-113.79 2764.78,-103.79 2757.78,-103.79"/>
</g>
<!-- SaisieProfesseursPage -->
<g id="node25" class="node">
<title>SaisieProfesseursPage</title>
<polygon fill="#ffffb3" stroke="black" points="3377.7,-84.8 3236.3,-84.8 3236.3,-48.8 3377.7,-48.8 3377.7,-84.8"/>
<text text-anchor="middle" x="3307" y="-62.6" font-family="Times,serif" font-size="14.00">SaisieProfesseursPage</text>
</g>
<!-- SaisieProfesseursPageModule -->
<g id="node26" class="node">
<title>SaisieProfesseursPageModule</title>
<polygon fill="#8dd3c7" stroke="black" points="3287.25,-149.8 3284.25,-153.8 3263.25,-153.8 3260.25,-149.8 3102.75,-149.8 3102.75,-113.8 3287.25,-113.8 3287.25,-149.8"/>
<text text-anchor="middle" x="3195" y="-127.6" font-family="Times,serif" font-size="14.00">SaisieProfesseursPageModule</text>
</g>
<!-- SaisieProfesseursPage&#45;&gt;SaisieProfesseursPageModule -->
<g id="edge18" class="edge">
<title>SaisieProfesseursPage&#45;&gt;SaisieProfesseursPageModule</title>
<path fill="none" stroke="black" d="M3261.89,-84.91C3261.89,-84.91 3261.89,-103.79 3261.89,-103.79"/>
<polygon fill="black" stroke="black" points="3258.39,-103.79 3261.89,-113.79 3265.39,-103.79 3258.39,-103.79"/>
</g>
<!-- SaisieProfesseursPageRoutingModule -->
<g id="node27" class="node">
<title>SaisieProfesseursPageRoutingModule</title>
<polygon fill="#8dd3c7" stroke="black" points="3211.87,-84.8 3208.87,-88.8 3187.87,-88.8 3184.87,-84.8 2982.13,-84.8 2982.13,-48.8 3211.87,-48.8 3211.87,-84.8"/>
<text text-anchor="middle" x="3097" y="-62.6" font-family="Times,serif" font-size="14.00">SaisieProfesseursPageRoutingModule</text>
</g>
<!-- SaisieProfesseursPageRoutingModule&#45;&gt;SaisieProfesseursPageModule -->
<g id="edge19" class="edge">
<title>SaisieProfesseursPageRoutingModule&#45;&gt;SaisieProfesseursPageModule</title>
<path fill="none" stroke="black" d="M3157.28,-84.91C3157.28,-84.91 3157.28,-103.79 3157.28,-103.79"/>
<polygon fill="black" stroke="black" points="3153.78,-103.79 3157.28,-113.79 3160.78,-103.79 3153.78,-103.79"/>
</g>
<!-- Tab3Page -->
<g id="node28" class="node">
<title>Tab3Page</title>
<polygon fill="#ffffb3" stroke="black" points="3673.98,-84.8 3602.02,-84.8 3602.02,-48.8 3673.98,-48.8 3673.98,-84.8"/>
<text text-anchor="middle" x="3638" y="-62.6" font-family="Times,serif" font-size="14.00">Tab3Page</text>
</g>
<!-- Tab3PageModule -->
<g id="node29" class="node">
<title>Tab3PageModule</title>
<polygon fill="#8dd3c7" stroke="black" points="3618.53,-149.8 3615.53,-153.8 3594.53,-153.8 3591.53,-149.8 3503.47,-149.8 3503.47,-113.8 3618.53,-113.8 3618.53,-149.8"/>
<text text-anchor="middle" x="3561" y="-127.6" font-family="Times,serif" font-size="14.00">Tab3PageModule</text>
</g>
<!-- Tab3Page&#45;&gt;Tab3PageModule -->
<g id="edge20" class="edge">
<title>Tab3Page&#45;&gt;Tab3PageModule</title>
<path fill="none" stroke="black" d="M3610.39,-84.91C3610.39,-84.91 3610.39,-103.79 3610.39,-103.79"/>
<polygon fill="black" stroke="black" points="3606.89,-103.79 3610.39,-113.79 3613.89,-103.79 3606.89,-103.79"/>
</g>
<!-- Tab3PageRoutingModule -->
<g id="node30" class="node">
<title>Tab3PageRoutingModule</title>
<polygon fill="#8dd3c7" stroke="black" points="3578.15,-84.8 3575.15,-88.8 3554.15,-88.8 3551.15,-84.8 3417.85,-84.8 3417.85,-48.8 3578.15,-48.8 3578.15,-84.8"/>
<text text-anchor="middle" x="3498" y="-62.6" font-family="Times,serif" font-size="14.00">Tab3PageRoutingModule</text>
</g>
<!-- Tab3PageRoutingModule&#45;&gt;Tab3PageModule -->
<g id="edge21" class="edge">
<title>Tab3PageRoutingModule&#45;&gt;Tab3PageModule</title>
<path fill="none" stroke="black" d="M3540.78,-84.91C3540.78,-84.91 3540.78,-103.79 3540.78,-103.79"/>
<polygon fill="black" stroke="black" points="3537.28,-103.79 3540.78,-113.79 3544.28,-103.79 3537.28,-103.79"/>
</g>
<!-- TabsPage -->
<g id="node31" class="node">
<title>TabsPage</title>
<polygon fill="#ffffb3" stroke="black" points="3968.43,-84.8 3897.57,-84.8 3897.57,-48.8 3968.43,-48.8 3968.43,-84.8"/>
<text text-anchor="middle" x="3933" y="-62.6" font-family="Times,serif" font-size="14.00">TabsPage</text>
</g>
<!-- TabsPageModule -->
<g id="node32" class="node">
<title>TabsPageModule</title>
<polygon fill="#8dd3c7" stroke="black" points="3912.98,-149.8 3909.98,-153.8 3888.98,-153.8 3885.98,-149.8 3799.02,-149.8 3799.02,-113.8 3912.98,-113.8 3912.98,-149.8"/>
<text text-anchor="middle" x="3856" y="-127.6" font-family="Times,serif" font-size="14.00">TabsPageModule</text>
</g>
<!-- TabsPage&#45;&gt;TabsPageModule -->
<g id="edge22" class="edge">
<title>TabsPage&#45;&gt;TabsPageModule</title>
<path fill="none" stroke="black" d="M3905.39,-84.91C3905.39,-84.91 3905.39,-103.79 3905.39,-103.79"/>
<polygon fill="black" stroke="black" points="3901.89,-103.79 3905.39,-113.79 3908.89,-103.79 3901.89,-103.79"/>
</g>
<!-- TabsPageRoutingModule -->
<g id="node33" class="node">
<title>TabsPageRoutingModule</title>
<polygon fill="#8dd3c7" stroke="black" points="3873.6,-84.8 3870.6,-88.8 3849.6,-88.8 3846.6,-84.8 3714.4,-84.8 3714.4,-48.8 3873.6,-48.8 3873.6,-84.8"/>
<text text-anchor="middle" x="3794" y="-62.6" font-family="Times,serif" font-size="14.00">TabsPageRoutingModule</text>
</g>
<!-- TabsPageRoutingModule&#45;&gt;TabsPageModule -->
<g id="edge23" class="edge">
<title>TabsPageRoutingModule&#45;&gt;TabsPageModule</title>
<path fill="none" stroke="black" d="M3836.28,-84.91C3836.28,-84.91 3836.28,-103.79 3836.28,-103.79"/>
<polygon fill="black" stroke="black" points="3832.78,-103.79 3836.28,-113.79 3839.78,-103.79 3832.78,-103.79"/>
</g>
</g>
</svg>
